<svg xmlns="http://www.w3.org/2000/svg" viewBox="0 0 51.04 49.47"><defs><style>.cls-1,.cls-2{fill:#f9ba00}.cls-2{opacity:.2}.cls-3{fill:none}</style></defs><g id="Calque_2" data-name="Calque 2"><g id="Calque_1-2" data-name="Calque 1"><path d="M24.78,39.73a15.16,15.16,0,0,1-15.32-15,15.16,15.16,0,0,1,15.32-15" class="cls-1"/><path d="M24.88,7.58A17.34,17.34,0,0,1,42.4,24.74,17.34,17.34,0,0,1,24.88,41.89" class="cls-2"/><path d="M24.88,9.74A15.25,15.25,0,0,1,40.29,24.82,15.25,15.25,0,0,1,24.88,39.9" class="cls-2"/><path d="M24.88,11.77A13.19,13.19,0,0,1,38.21,24.82a13.19,13.19,0,0,1-13.33,13" class="cls-2"/><path d="M24.88,13.81a11,11,0,1,1,0,22" class="cls-2"/><path d="M24.88,15.85a9,9,0,1,1,0,17.94" class="cls-2"/><path d="M24.78,17.88a6.94,6.94,0,1,1,0,13.88" class="cls-2"/><path d="M24.78,19.92a4.91,4.91,0,1,1,0,9.81" class="cls-2"/><path d="M24.78,21.64a3.1,3.1,0,1,1,0,6.2" class="cls-2"/><polyline points="6.8 0 51.04 0 51.04 49.47 0 49.47 0 0 6.8 0" class="cls-3"/></g></g></svg>