<svg xmlns="http://www.w3.org/2000/svg" xmlns:xlink="http://www.w3.org/1999/xlink" viewBox="0 0 24 24"><defs><linearGradient id="svg_53" x1="1" x2="1" y1=".5" y2="1"><stop offset="0" stop-color="#606060" stop-opacity="1"/><stop offset="1" stop-color="#5e5e5e" stop-opacity="0"/></linearGradient></defs><rect id="svg_55" width="18" height="21" x="2.428" y="1.669" fill="#eaeaea" stroke="#606060"/><line id="svg_56" x1="6.696" x2="14.89" y1="4.378" y2="4.378" fill="none" stroke="#a0a0a0"/><line id="svg_57" x1="6.695" x2="12.92" y1="7.108" y2="7.108" fill="none" stroke="#a0a0a0"/><line id="svg_58" x1="6.694" x2="15.647" y1="9.842" y2="9.842" fill="none" stroke="#a0a0a0"/><line id="svg_59" x1="6.697" x2="13.218" y1="12.366" y2="12.366" fill="none" stroke="#a0a0a0"/><line id="svg_60" x1="6.697" x2="14.436" y1="15.065" y2="15.065" fill="none" stroke="#a0a0a0"/><line id="svg_61" x1="6.697" x2="13.37" y1="17.842" y2="17.842" fill="none" stroke="#a0a0a0"/><g id="svg_54"><path id="svg_31" fill="#606060" stroke="none" d="m11.24329,8.73944l0,2.79974l2.53499,0.07777l0,-2.95528c1.78134,0.07777 2.26093,1.39987 2.12391,2.95528c-0.06851,1.63318 -1.30175,3.49967 -3.49418,3.26636c-2.19242,-0.31108 -2.87755,-1.39987 -3.15161,-2.72197c-0.27406,-1.39987 0.41108,-3.34413 1.98689,-3.4219z" transform="rotate(-45, 12.5448, 11.7085)"/><rect id="svg_50" width="2.58" height="4.854" x="15.04" y="12.746" fill="url(#svg_53)" stroke="none" opacity=".95" transform="rotate(-45, 16.2485, 15.1732)"/></g></svg>