<svg xmlns="http://www.w3.org/2000/svg" width="222" height="222"><path id="svg_1" fill="none" stroke="#3f3f3f" stroke-width="13" d="m93.75,118.44922c-4.5,13.58447 -14.66553,11.5 -28.25,11.5l-34,0c-13.58447,0 -24.5,-7.16553 -24.5,-21.5c0,-14.33447 10.91553,-20.5 24.5,-20.5l34,0c13.58447,0 19.75,-2.33447 26.5,10.75"/><g id="svg_11"><line id="svg_4" x1="45.41" x2="83.077" y1="28.279" y2="65.946" fill="none" stroke="#007fff" stroke-linecap="round" stroke-width="8"/><line id="svg_5" x1="109.415" x2="109.415" y1="65.946" y2="15.013" fill="none" stroke="#007fff" stroke-linecap="round" stroke-width="8"/><line id="svg_6" x1="140.962" x2="177.589" y1="65.946" y2="29.319" fill="none" stroke="#007fff" stroke-linecap="round" stroke-width="8"/></g><g id="svg_12" transform="rotate(-180, 108, 172.111)"><line id="svg_13" x1="41.91" x2="79.577" y1="153.279" y2="190.946" fill="none" stroke="#007fff" stroke-linecap="round" stroke-width="8"/><line id="svg_14" x1="105.915" x2="105.915" y1="190.946" y2="140.013" fill="none" stroke="#007fff" stroke-linecap="round" stroke-width="8"/><line id="svg_15" x1="137.462" x2="174.089" y1="190.946" y2="154.319" fill="none" stroke="#007fff" stroke-linecap="round" stroke-width="8"/></g><path id="svg_2" fill="none" stroke="#3f3f3f" stroke-width="13" d="m215.5,118.44901c-4.5,13.58499 -14.6655,11.5 -28.25,11.5l-34,0c-13.5845,0 -24.5,-7.16501 -24.5,-21.5c0,-14.3343 10.9155,-20.4998 24.5,-20.4998l34,0c13.5845,0 19.75,-2.3345 26.5,10.75" transform="rotate(-180, 172.125, 108.926)"/></svg>