<svg xmlns="http://www.w3.org/2000/svg" id="svgroot" width="840.758" height="442"><rect id="svg_6" width="370" height="100" x="2" y="312" fill="url(#svg_7)" fill-opacity="1" stroke="#404040" stroke-opacity="1" stroke-width="3" rx="10" ry="10"/><circle id="svg_1" cx="170" cy="151" r="143" fill="red" fill-opacity="1" stroke="#000" stroke-opacity="1" stroke-width="5"/><circle id="svg_2" cx="170" cy="181" r="83.625" fill="#fff" fill-opacity="1" stroke="#000" stroke-opacity="1" stroke-width="2"/><rect id="svg_240" width="464" height="439" x="374" y="2" fill="url(#svg_241)" fill-opacity="1" stroke="#000" stroke-opacity="1" stroke-width="3" rx="19" ry="19"/><path id="svg_239" fill="url(#svg_194)" fill-opacity=".5" stroke="#ff0" stroke-opacity="1" stroke-width="2" d="M374,361 l8,4 l238,-152 l4,41 l12,-13 l-2,30" transform="rotate(175, 505.485, 289.651)"/><path id="svg_238" fill="url(#svg_194)" fill-opacity=".5" stroke="#ff0" stroke-opacity="1" stroke-width="2" d="M402,373 l7,4 l220,-135 l4,36 l18,-10 l-8,25" transform="rotate(160, 528, 310)"/><path id="svg_237" fill="url(#svg_194)" fill-opacity=".5" stroke="#ff0" stroke-opacity="1" stroke-width="2" d="M464,355 l7,4 l196,-117 l4,32 l16,-9 l-8,22" transform="rotate(145, 577, 301)"/><path id="svg_236" fill="url(#svg_194)" fill-opacity=".5" stroke="#ff0" stroke-opacity="1" stroke-width="2" d="M489,357 l7,4 l194,-114 l4,31 l16,-9 l-8,21" transform="rotate(130, 601, 305)"/><path id="svg_231" fill="url(#svg_194)" fill-opacity=".5" stroke="#ff0" stroke-opacity="1" stroke-width="2" d="M527,337 l7,4 l185,-106 l4,29 l16,-9 l-8,20" transform="rotate(115, 633, 288)"/><path id="svg_230" fill="url(#svg_194)" fill-opacity=".5" stroke="#ff0" stroke-opacity="1" stroke-width="2" d="M555,335 l7,4 l185,-106 l4,29 l16,-9 l-8,20" transform="rotate(100, 661, 286)"/><path id="svg_229" fill="url(#svg_194)" fill-opacity=".5" stroke="#ff0" stroke-opacity="1" stroke-width="2" d="M581,324 l7,4 l185,-106 l4,29 l16,-9 l-8,20" transform="rotate(85, 687, 275)"/><path id="svg_228" fill="url(#svg_194)" fill-opacity=".5" stroke="#ff0" stroke-opacity="1" stroke-width="2" d="M597,305 l7,4 l185,-106 l4,29 l16,-9 l-8,20" transform="rotate(65, 703, 256)"/><path id="svg_227" fill="url(#svg_194)" fill-opacity=".5" stroke="#ff0" stroke-opacity="1" stroke-width="2" d="M608,279 l7,4 l185,-106 l4,29 l16,-9 l-8,20" transform="rotate(50, 714, 230)"/><path id="svg_225" fill="url(#svg_194)" fill-opacity=".5" stroke="#ff0" stroke-opacity="1" stroke-width="2" d="M629,255 l7,4 l185,-106 l4,29 l9,-7 l-1,18" transform="rotate(35, 731.723, 206.706)"/><path id="svg_224" fill="url(#svg_194)" fill-opacity=".5" stroke="#ff0" stroke-opacity="1" stroke-width="2" d="M616,231 l7,4 l185,-106 l4,29 l16,-9 l-8,20" transform="rotate(20, 722, 182)"/><path id="svg_163" fill="url(#svg_194)" fill-opacity=".5" stroke="#ff0" stroke-opacity="1" stroke-width="2" d="M606,212 l7,4 l185,-106 l4,29 l16,-9 l-8,20"/><defs><linearGradient id="svg_116" x1=".785" x2=".746" y1=".031" y2=".699"><stop offset="0" stop-color="#000" stop-opacity="1"/><stop offset="1" stop-color="#070707" stop-opacity="0"/></linearGradient><linearGradient id="svg_130" x1=".785" x2=".359" y1=".031" y2=".477"><stop offset="0" stop-color="#000" stop-opacity="1"/><stop offset="1" stop-color="#070707" stop-opacity="0"/></linearGradient><linearGradient id="svg_132" x1=".203" x2=".629" y1=".027" y2=".563"><stop offset="0" stop-color="#000" stop-opacity="1"/><stop offset="1" stop-color="#070707" stop-opacity="0"/></linearGradient><linearGradient id="svg_134" x1=".504" x2=".484" y1=".012" y2=".441"><stop offset="0" stop-color="#000" stop-opacity="1"/><stop offset="1" stop-color="#070707" stop-opacity="0"/></linearGradient><linearGradient id="svg_146" x1=".391" x2=".629" y1=".023" y2=".563"><stop offset="0" stop-color="#000" stop-opacity="1"/><stop offset="1" stop-color="#070707" stop-opacity="0"/></linearGradient><linearGradient id="svg_148" x1=".504" x2=".48" y1=".012" y2=".539"><stop offset="0" stop-color="#000" stop-opacity="1"/><stop offset="1" stop-color="#070707" stop-opacity="0"/></linearGradient><linearGradient id="svg_153" x1=".207" x2=".68" y1=".191" y2=".652"><stop offset="0" stop-color="#d60e0e" stop-opacity="1"/><stop offset="1" stop-color="#bc2d53" stop-opacity=".64"/></linearGradient><linearGradient id="svg_165" x1=".453" x2=".449" y1=".012" y2=".492"><stop offset="0" stop-color="#fff" stop-opacity="1"/><stop offset="1" stop-color="#fff" stop-opacity=".48"/></linearGradient><linearGradient id="svg_170" x1=".176" x2=".609" y1=".07" y2=".645"><stop offset="0" stop-color="#000" stop-opacity="1"/><stop offset="1" stop-color="#070707" stop-opacity="0"/></linearGradient><linearGradient id="svg_174" x1=".52" x2=".543" y1=".527" y2=".012"><stop offset="0" stop-color="#fcfcfc" stop-opacity="1"/><stop offset="1" stop-color="#fff" stop-opacity="0"/></linearGradient><linearGradient id="svg_188" x1=".207" x2=".68" y1=".191" y2=".652"><stop offset="0" stop-color="#d60e0e" stop-opacity="1"/><stop offset="1" stop-color="#dd5454" stop-opacity=".46"/></linearGradient><linearGradient id="svg_193" x1=".152" x2=".719" y1=".176" y2=".602"><stop offset="0" stop-color="#fff" stop-opacity="1"/><stop offset="1" stop-color="#f4eded" stop-opacity=".58"/></linearGradient><linearGradient id="svg_194" x1=".789" x2=".047" y1=".73" y2=".184"><stop offset="0" stop-color="#ffa" stop-opacity="1"/><stop offset="1" stop-color="#ffff56" stop-opacity=".74"/></linearGradient><linearGradient id="svg_241" x1=".578" x2=".156" y1=".66" y2=".07"><stop offset="0" stop-color="#f7f7b9" stop-opacity="1"/><stop offset="1" stop-color="#ff0" stop-opacity="1"/></linearGradient><linearGradient id="svg_7" x1="0" x2="1" y1="0" y2="1"><stop offset="0" stop-color="#f9ac63" stop-opacity=".85"/><stop offset="1" stop-color="#ff0" stop-opacity=".85"/></linearGradient></defs><ellipse id="svg_131" cx="144" cy="148" fill="red" fill-opacity="0" stroke="url(#svg_132)" stroke-opacity="1" stroke-width="3" rx="27" ry="42" transform="rotate(14, 144, 148)"/><ellipse id="svg_139" cx="249" cy="89" fill="#000" fill-opacity="1" stroke="#000" stroke-opacity="1" stroke-width="3" rx="47" ry="41" transform="rotate(-145, 249, 89)"/><ellipse id="svg_138" cx="94" cy="87" fill="#000" fill-opacity="1" stroke="#000" stroke-opacity="1" stroke-width="3" rx="47" ry="41" transform="rotate(-30, 94, 87)"/><circle id="svg_99" cx="170" cy="180" r="83.625" fill="url(#svg_174)" fill-opacity=".25" stroke="#000" stroke-opacity="1" stroke-width="2"/><ellipse id="svg_119" cx="219" cy="201" fill="#fff" stroke-width="5"/><ellipse id="svg_143" cx="107" cy="186" fill="red" fill-opacity="0" stroke="url(#svg_132)" stroke-opacity="1" stroke-width="3" rx="15" ry="20" transform="rotate(14, 107, 186)"/><ellipse id="svg_144" cx="239" cy="184" fill="red" fill-opacity="0" stroke="url(#svg_146)" stroke-opacity="1" stroke-width="3" rx="15" ry="20" transform="rotate(29, 239, 184)"/><ellipse id="svg_129" cx="197" cy="149" fill="red" fill-opacity="0" stroke="url(#svg_130)" stroke-opacity="1" stroke-width="3" rx="27" ry="41" transform="rotate(350, 197, 149)"/><ellipse id="svg_147" cx="173" cy="197" fill="#fff" fill-opacity="1" stroke="url(#svg_148)" stroke-opacity="1" stroke-width="2" rx="62" ry="43" transform="rotate(180, 173, 197)"/><ellipse id="svg_105" cx="148" cy="156" fill="#fff" fill-opacity="1" stroke="#000" stroke-opacity="1" stroke-width="1" rx="17" ry="29"/><ellipse id="svg_106" cx="192" cy="155" fill="#fff" fill-opacity="1" stroke="#000" stroke-opacity="1" stroke-width="1" rx="15" ry="29"/><ellipse id="svg_121" cx="191" cy="163" fill="#000" fill-opacity="1" stroke="#000" stroke-opacity="1" stroke-width="5" rx="8" ry="17"/><ellipse id="svg_142" cx="171" cy="198" fill="none" fill-opacity="1" stroke="url(#svg_134)" stroke-opacity="1" stroke-width="2" rx="28" ry="18"/><ellipse id="svg_122" cx="172" cy="201" fill="#000" fill-opacity="1" stroke="#000" stroke-opacity="1" stroke-width="5" rx="18" ry="12"/><ellipse id="svg_118" cx="170" cy="197" fill="url(#svg_165)" fill-opacity="1" stroke="none" stroke-opacity="1" stroke-width="5" rx="11" ry="5"/><ellipse id="svg_141" cx="110" cy="196" fill="red" fill-opacity="0" stroke="url(#svg_116)" stroke-opacity="1" stroke-width="2" rx="8" ry="1" transform="rotate(-20, 110, 196)"/><ellipse id="svg_140" cx="235" cy="198" fill="red" fill-opacity="0" stroke="url(#svg_116)" stroke-opacity="1" stroke-width="2" rx="8" ry="5" transform="rotate(15, 235, 198)"/><ellipse id="svg_166" cx="147" cy="149" fill="#fff" fill-opacity="0" stroke="url(#svg_170)" stroke-opacity="1" stroke-width="3" rx="27" ry="41"/><ellipse id="svg_176" cx="558" cy="77" fill="#000" fill-opacity="1" stroke="#000" stroke-opacity="1" stroke-width="3" rx="47" ry="41" transform="rotate(-30, 557, 76)"/><ellipse id="svg_177" cx="710" cy="79" fill="#000" fill-opacity="1" stroke="#000" stroke-opacity="1" stroke-width="3" rx="47" ry="41" transform="rotate(-145, 706, 76)"/><circle id="svg_178" cx="633" cy="175" r="84.625" fill="#000" fill-opacity="1" stroke="#000" stroke-opacity="1" stroke-width="2"/><ellipse id="svg_179" cx="664" cy="152" fill="#fff" fill-opacity="1" stroke="none" stroke-opacity="1" stroke-width="3" rx="29" ry="43" transform="rotate(350, 663, 151)"/><ellipse id="svg_181" cx="698" cy="191" fill="#fff" fill-opacity="1" stroke="none" stroke-opacity="1" stroke-width="3" rx="16" ry="26" transform="rotate(9, 697.5, 190.5)"/><ellipse id="svg_182" cx="569" cy="189" fill="#fff" fill-opacity="1" stroke="none" stroke-opacity="1" stroke-width="3" rx="16" ry="25" transform="rotate(-1, 568, 188)"/><ellipse id="svg_180" cx="606" cy="150" fill="#fff" fill-opacity="1" stroke="none" stroke-opacity="1" stroke-width="3" rx="31" ry="44" transform="rotate(184, 605, 149)"/><ellipse id="svg_186" cx="614" cy="210" fill="#fff" fill-opacity="1" stroke="none" stroke-opacity="1" stroke-width="2" rx="60" ry="46" transform="rotate(210, 613.5, 209.5) translate(557, 160) scale(1) translate(-557, -160)"/><ellipse id="svg_187" cx="652" cy="210" fill="#fff" fill-opacity="1" stroke="none" stroke-opacity="1" stroke-width="2" rx="61" ry="46" transform="rotate(329, 651, 209) translate(594, 159) scale(1) translate(-594, -159)"/><ellipse id="svg_185" cx="633" cy="225" fill="#fff" fill-opacity="1" stroke="url(#svg_148)" stroke-opacity="1" stroke-width="2" rx="50" ry="46" transform="rotate(180, 633, 225)"/><ellipse id="svg_184" cx="634" cy="219" fill="#000" fill-opacity="1" stroke="url(#svg_148)" stroke-opacity="1" stroke-width="2" rx="47" ry="47" transform="rotate(180, 634, 219)"/><ellipse id="svg_183" cx="636" cy="195" fill="#fff" fill-opacity="1" stroke="url(#svg_148)" stroke-opacity="1" stroke-width="2" rx="62" ry="42" transform="rotate(180, 636, 195)"/><ellipse id="svg_151" cx="634" cy="252" fill="#a00" fill-opacity="1" stroke="none" stroke-opacity="1" stroke-width="5" rx="26" ry="12"/><ellipse id="svg_154" cx="641" cy="251" fill="url(#svg_153)" fill-opacity="1" stroke="none" stroke-opacity="1" stroke-width="5" rx="14" ry="7"/><ellipse id="svg_152" cx="627" cy="252" fill="url(#svg_188)" fill-opacity="1" stroke="none" stroke-opacity="1" stroke-width="5" rx="14" ry="7"/><polyline id="svg_159" fill-opacity="1" stroke="url(#svg_193)" stroke-linecap="round" stroke-linejoin="round" stroke-opacity="1" stroke-width="5" points="632 254 631 254 629 254 628 254 627 254 627 253 626 253 624 253 624 253 624 253 624 252 624 252 622 252 622 252 621 252 621 252 619 252 619 252 617 252 616 252 615 252 615 252 615 252 615 253 615 253 616 253 617 253 617 253 619 253 619 253 621 253 621 253 622 253 624 253 624 254 624 254 626 254 627 254 628 254 628 253 629 253" transform="rotate(10, 624, 254)"/><ellipse id="svg_120" cx="616" cy="167" fill="#000" fill-opacity="1" stroke="#000" stroke-opacity="1" stroke-width="5" rx="8" ry="18" transform="rotate(-5, 615, 166)"/><ellipse id="svg_189" cx="652" cy="166" fill="#000" fill-opacity="1" stroke="#000" stroke-opacity="1" stroke-width="5" rx="7" ry="18" transform="rotate(8, 651, 165)"/><ellipse id="svg_190" cx="635" cy="201" fill="#fff" fill-opacity="1" stroke="url(#svg_134)" stroke-opacity="1" stroke-width="2" rx="28" ry="18"/><ellipse id="svg_191" cx="636" cy="203" fill="#000" fill-opacity="1" stroke="#000" stroke-opacity="1" stroke-width="5" rx="18" ry="12"/><ellipse id="svg_192" cx="633" cy="197" fill="url(#svg_165)" fill-opacity="1" stroke="none" stroke-opacity="1" stroke-width="5" rx="11" ry="5"/><path id="svg_218" fill="none" fill-opacity="1" stroke="#000" stroke-opacity="1" stroke-width="5" d="M642,347"/><path id="svg_223" fill="none" fill-opacity="1" stroke="#000" stroke-opacity="1" stroke-width="5" d="M715,385"/><ellipse id="svg_233" cx="149" cy="165" fill="#000" fill-opacity="1" stroke="#000" stroke-opacity="1" stroke-width="5" rx="8" ry="17"/><ellipse id="svg_234" cx="699" cy="199" fill="red" fill-opacity="0" stroke="url(#svg_116)" stroke-opacity="1" stroke-width="2" rx="8" ry="5" transform="rotate(15, 698, 198)"/><ellipse id="svg_235" cx="574" cy="198" fill="red" fill-opacity="0" stroke="url(#svg_116)" stroke-opacity="1" stroke-width="2" rx="8" ry="2" transform="rotate(-20, 573, 197)"/><text id="svg_4" x="185" y="394" fill="#000" fill-opacity="1" stroke="#000" stroke-opacity="1" stroke-width="0" font-family="sans-serif" font-size="64pt" font-weight="bold" text-anchor="middle">SVG-edit</text><text id="svg_5" x="184" y="392" fill="#f60" fill-opacity="1" stroke="#404040" stroke-opacity="1" stroke-width="3" font-family="sans-serif" font-size="64pt" font-weight="bold" text-anchor="middle">SVG-edit</text></svg>